<svg width="174" height="52" fill="none" xmlns="http://www.w3.org/2000/svg"><g clip-path="url(#clip0)"><path d="M51.582 20.854a22.23 22.23 0 00-6.936-9.089 21.96 21.96 0 00-10.503-4.397A21.887 21.887 0 0022.865 8.83a22.083 22.083 0 00-9.058 6.934 22.354 22.354 0 00-4.43 10.564 22.432 22.432 0 001.373 11.386 22.237 22.237 0 006.813 9.184 21.965 21.965 0 0010.442 4.54 99.88 99.88 0 01-1.456-5.951 27.766 27.766 0 004.1 2.216s.104 1.876.241 3.97c1.54.027 3.08-.11 4.592-.408a1.874 1.874 0 010-.66c.25-1.625.939-4.553 1.077-6.439a13.213 13.213 0 002.498-3.224l-.052.383c-.474 3.701-1.464 7.655-2.067 8.75a4.845 4.845 0 01-.715.999 22.007 22.007 0 008.563-4.141 22.238 22.238 0 006.047-7.386 22.451 22.451 0 00.749-18.694zm-1.266 3.293c-.38.374-1.163.626-1.293-.504-.129-1.13-.163-1.92-.163-1.92s-1.663-2.98-2.283-3.015c-.62-.035-5.022 3.015-6.185 4.344-1.008 1.121-1.206 1.043-1.206 3.015 0 1.486.19 7.1.086 11.392l-7.02 1.886a54.728 54.728 0 01-6.72 1.494l-.861-5.066h-.12L22.336 24.33s-3.283-1.252-4.489-1.59a3.213 3.213 0 00-3.445.547c-.472.417-.85.931-1.107 1.509a4.44 4.44 0 00-.384 1.836c.182.404.321.827.414 1.26.043.417-1.034.374-1.723.374-.69 0-.792-1.251-.25-2.72a19.929 19.929 0 011.568-3.25 10.31 10.31 0 011.783-2.51s.12-.296 1.077-.21c.956.088 6.271.374 6.271.374l.043-1.972a121.935 121.935 0 0117.436-1.164v1.59a19.265 19.265 0 017.012-1.738.779.779 0 01.663.339c.293.373 2.076 2.607 2.283 2.928a24.365 24.365 0 011.576 2.607 5.442 5.442 0 01-.75 1.599v.008z" fill="#FDC305"/><path d="M48.636 18.83c.405.52.758.981.862 1.12a24.464 24.464 0 011.576 2.607 5.441 5.441 0 01-.74 1.547c-.38.373-1.164.625-1.293-.504-.129-1.13-.18-1.877-.18-1.877s-1.663-2.98-2.283-3.015c-.62-.035-5.023 3.015-6.186 4.344-1.007 1.121-1.206 1.043-1.206 3.015 0 1.304.147 5.779.112 9.758 1.56.174 3.851.609 4.54 1.634 0 0-.25-6.239 6.728-2.972 0 0 .241-8.506 9.872-6.325a37.712 37.712 0 00-11.802-9.332zm-9.071-2.016A79.248 79.248 0 0038.36 2.45s-.129-1.13-.75-.208a12.47 12.47 0 00-1.033 3.475 60.534 60.534 0 00-11.043.296c-.707-2.39-1.913-3.476-2.49-3.19-.577.288-.646 2.851-.646 2.851l-.284 12.304a121.942 121.942 0 0117.452-1.165z" fill="#F06351"/><path d="M39.065 40.943c.112-.93.172-2.163.207-3.527l-7.02 1.885a54.742 54.742 0 01-6.72 1.538l.957 4.345c0 .095 0 .19.06.286a27.758 27.758 0 004.1 2.216 36.478 36.478 0 005.927-3.589v.053a13.21 13.21 0 002.49-3.207z" fill="#E55645"/><path d="M27.566 14.094c-.043-.087.861.59 1.215.8.353.208.525.364.525.512 0 .148-.224.295-.534.295-.31 0-.793-.104-.861-.226-.07-.121.516 0 .81 0h.249a6.992 6.992 0 01-1.404-1.381zm6.46.096s-.861 1.112-.939 1.164c-.077.052-.146.295.164.252a6.911 6.911 0 001.05-.244c.096-.052.061-.173-.102-.156-.164.017-.586.043-.862.096l.732-1.104s.026-.104-.043-.009zm-2.705 5.308c.4-.177.73-.482.94-.868.24-.574 0-.791-.38-.87a2.095 2.095 0 00-1.507.296c-.336.322-.293.634 0 .869.29.23.609.423.947.573z" fill="#000"/><path d="M31.011 20.593a1.78 1.78 0 01-.396.522 1.486 1.486 0 01-.861.33 1.866 1.866 0 01-1.327-.382 1.728 1.728 0 01-.456-.391.86.86 0 00-.31-.218s.646 3.572 2.213 4.145c1.568.574 1.861-.66 1.904-.99a4.926 4.926 0 00-.706-2.816c0-.26-.017-.087-.06-.2z" fill="#F06351"/><path d="M29.547 21.584a2.998 2.998 0 01-2.024-1.243.132.132 0 010-.173.12.12 0 01.172 0 2.785 2.785 0 001.817 1.138 1.808 1.808 0 001.413-.869l.12-.165.087.191s.327.66.861.695c.534.035.913-.365 1.404-1.12a.124.124 0 01.173-.035.125.125 0 01.034.173c-.574.852-1.117 1.26-1.628 1.225a1.327 1.327 0 01-.965-.634 1.954 1.954 0 01-1.464.817z" fill="#000"/><path d="M31.235 33.28c1.784 0 3.23-1.46 3.23-3.259 0-1.8-1.446-3.258-3.23-3.258s-3.23 1.458-3.23 3.258 1.446 3.259 3.23 3.259z" fill="#FDC305"/><path d="M35.517 27.37l-2.697 1.14.991-4.893-6.46 8.48 2.696-1.138-.99 4.901 6.46-8.49zM29.15 30.7l3.583-4.701-.698 3.476 1.723-.713-3.609 4.71.698-3.476-1.697.704zm-1.205-1.278a.969.969 0 00.965-.974.969.969 0 00-.965-.973.969.969 0 00-.965.973.97.97 0 00.965.974zm5.616 3.528c.376 0 .68-.308.68-.687a.684.684 0 00-.68-.687.683.683 0 00-.68.687c0 .379.304.686.68.686zm.827-1.886a.303.303 0 00.302-.304.303.303 0 00-.302-.304.303.303 0 00-.301.304c0 .168.135.304.301.304z" fill="#111"/><path d="M39.523 18.386a49.73 49.73 0 00-4.385 4.527 27.551 27.551 0 01-4.574 4.258c-.19-.46-1.404-1.32-1.404-1.32s-2.705-1.869-4.48-3.337a27.592 27.592 0 01-2.705-2.607l-1.723-.096a19.507 19.507 0 0010.338 7.681c.74-.121 2.825-1.624 4.384-2.85a49.875 49.875 0 005.169-5.135 5.546 5.546 0 00.982-1.738c-.982.33-1.602.617-1.602.617zM22.337 24.33s-3.282-1.252-4.488-1.59a3.213 3.213 0 00-3.446.547c-.472.417-.85.931-1.107 1.509a4.44 4.44 0 00-.383 1.836c.182.404.32.826.413 1.26.043.417-1.033.374-1.723.374-.689 0-.792-1.251-.25-2.72a20.01 20.01 0 011.568-3.25C8.227 24.764 0 30.464 0 30.464a39.145 39.145 0 017.055.209c4.523.46 4.307 4.058 4.307 4.058a33.02 33.02 0 014.85-.965c1.826-.122 1.956 1.842 1.956 1.842l.456 3.354a15.798 15.798 0 012.283-2.05 5.188 5.188 0 013.773-1.13L22.337 24.33z" fill="#F06351"/><path d="M73.79 36.495a7.25 7.25 0 01-1.206-4.51v-6.517a7.365 7.365 0 011.189-4.553c.798-1.037 2.162-1.553 4.092-1.547 1.929.006 3.236.46 3.919 1.364a5.875 5.875 0 011.145 3.902v1.53h-3.566v-1.66a8.755 8.755 0 00-.112-1.304 1.464 1.464 0 00-.404-.825 1.34 1.34 0 00-.991-.322 1.248 1.248 0 00-1.292.652 4.789 4.789 0 00-.293 1.912v8.272c-.04.655.076 1.31.336 1.911a1.265 1.265 0 001.249.634 1.154 1.154 0 001.206-.642 5.116 5.116 0 00.267-1.903V31.15h3.566v1.503a6.341 6.341 0 01-1.06 4.006c-.757.956-2.067 1.425-3.927 1.425-1.861 0-3.317-.522-4.118-1.59zM87.788 19.62h4.083l3.445 18.247h-3.394l-.611-4.031h-2.86l-.69 4.005h-3.445l3.472-18.22zm3.144 11.922l-1.085-7.334-1.077 7.334h2.162zm7.029-9.176h-2.79V19.62h9.233v2.746h-2.756V37.84h-3.695l.008-15.475z" fill="#111"/><path d="M111.65 19.62h7.003v1.894h-4.479v6.022h3.635v1.799h-3.635v6.682h4.522v1.824h-7.046v-18.22zm9.079 0h1.723l5.168 12.104V19.62h2.102v18.247h-1.611l-5.168-12.442V37.84h-2.136l-.078-18.22zm11.776 0h6.994v1.894h-4.479v6.022h3.67v1.799h-3.635v6.682h4.496v1.824h-7.046v-18.22zm9.071 0h3.635a5.99 5.99 0 014.022 1.139c.862.755 1.284 1.99 1.284 3.701 0 2.317-.744 3.733-2.231 4.25l2.584 9.131h-2.446l-2.369-8.55H144.1v8.55h-2.524v-18.22zm3.445 7.82c.83.081 1.66-.154 2.326-.66a3.113 3.113 0 00.706-2.355 5.096 5.096 0 00-.25-1.737 1.642 1.642 0 00-.861-.939 4.07 4.07 0 00-1.766-.304h-1.111v6.03l.956-.035zm8.891 9.055a8.088 8.088 0 01-1.094-4.65v-6.082a11.82 11.82 0 01.43-3.475 3.894 3.894 0 011.499-2.094 5.056 5.056 0 012.894-.73 4.498 4.498 0 013.601 1.286 6.126 6.126 0 011.103 4.023v.678h-2.369v-.565a10.087 10.087 0 00-.155-2.016 1.741 1.741 0 00-.655-1.069 2.566 2.566 0 00-1.482-.356 2.16 2.16 0 00-1.559.486c-.357.342-.59.795-.663 1.287a12.935 12.935 0 00-.146 2.163v6.769a6.561 6.561 0 00.508 3.006 2.422 2.422 0 003.85-.078 7.11 7.11 0 00.526-3.171V30.62h-2.292v-1.799h4.566v9.02h-1.559l-.25-2.095a3.206 3.206 0 01-1.206 1.725 3.158 3.158 0 01-2.007.595 3.98 3.98 0 01-1.97-.328 4.02 4.02 0 01-1.57-1.244zm13.799-5.084l-3.902-11.79h2.343l2.765 8.793 2.722-8.794h2.369l-3.876 11.791v6.43h-2.412l-.009-6.43z" fill="#444"/></g><defs><clipPath id="clip0"><path fill="#fff" d="M0 0h174v51.683H0z"/></clipPath></defs></svg>